<?xml version="1.0" encoding="UTF-8"?>
<svg width="193px" height="43px" viewBox="0 0 193 43" version="1.1" xmlns="http://www.w3.org/2000/svg" xmlns:xlink="http://www.w3.org/1999/xlink">
    <!-- Generator: Sketch 52.6 (67491) - http://www.bohemiancoding.com/sketch -->
    <title>Group</title>
    <desc>Created with Sketch.</desc>
    <g id="---ui-design" stroke="none" stroke-width="1" fill="none" fill-rule="evenodd">
        <g id="pdf-7" transform="translate(-470.000000, -203.000000)">
            <g id="Group-2" transform="translate(33.000000, 118.000000)">
                <g id="Group" transform="translate(426.000000, 73.000000)">
                    <path d="M66.033714,31.2900898 L69.2056842,31.2900898 L69.2056842,33.4865538 L69.2613328,33.4865538 C69.5581269,32.8019382 70.0728713,32.1981544 70.8055815,31.6751841 C71.5382918,31.1522139 72.4054738,30.8907327 73.4071536,30.8907327 C74.2789861,30.8907327 75.0255973,31.0476214 75.6470098,31.3614036 C76.2684223,31.6751857 76.7785294,32.0888014 77.1773463,32.6022631 C77.5761633,33.1157248 77.8683155,33.705246 78.0538118,34.3708445 C78.2393081,35.0364429 78.3320548,35.7210482 78.3320548,36.4246809 L78.3320548,44.9823327 L74.9931387,44.9823327 L74.9931387,37.3945481 C74.9931387,36.995189 74.9653147,36.5768191 74.9096658,36.1394258 C74.854017,35.7020326 74.7334462,35.3074337 74.5479499,34.9556173 C74.3624537,34.603801 74.1074001,34.3137946 73.7827817,34.0855894 C73.4581632,33.8573842 73.0268909,33.7432833 72.4889517,33.7432833 C71.9510125,33.7432833 71.4872788,33.85263 71.0977367,34.0713267 C70.7081945,34.2900233 70.3882183,34.5705213 70.1377983,34.9128291 C69.8873784,35.2551369 69.6972475,35.6497358 69.5674001,36.0966376 C69.4375528,36.5435394 69.37263,36.9951887 69.37263,37.4515991 L69.37263,44.9823327 L66.033714,44.9823327 L66.033714,31.2900898 Z M96.733192,44.9823327 L93.5612217,44.9823327 L93.5612217,42.7858688 L93.5055731,42.7858688 C93.2087791,43.4704843 92.6940347,44.0742682 91.9613245,44.5972384 C91.2286142,45.1202086 90.3614322,45.3816898 89.3597524,45.3816898 C88.4879199,45.3816898 87.7413087,45.2248011 87.1198962,44.911019 C86.4984837,44.5972368 85.9883766,44.1836211 85.5895596,43.6701595 C85.1907427,43.1566978 84.8985904,42.5671765 84.7130942,41.9015781 C84.5275979,41.2359796 84.4348512,40.5513743 84.4348512,39.8477416 L84.4348512,31.2900898 L87.7737672,31.2900898 L87.7737672,38.8778744 C87.7737672,39.2772335 87.8015912,39.6956034 87.8572401,40.1329967 C87.912889,40.57039 88.0334598,40.9649889 88.218956,41.3168052 C88.4044523,41.6686215 88.6595058,41.9586279 88.9841243,42.1868331 C89.3087428,42.4150383 89.7400151,42.5291392 90.2779543,42.5291392 C90.7973438,42.5291392 91.2564402,42.4197925 91.6552571,42.2010959 C92.0540741,41.9823993 92.3786877,41.7019012 92.6291077,41.3595935 C92.8795276,41.0172857 93.0696584,40.6226868 93.1995058,40.175785 C93.3293532,39.7288831 93.3942759,39.2772338 93.3942759,38.8208234 L93.3942759,31.2900898 L96.733192,31.2900898 L96.733192,44.9823327 Z M116.636841,31.2900898 L116.636841,43.755736 C116.636841,44.9918474 116.488447,46.1090852 116.191653,47.1074829 C115.894859,48.1058806 115.435762,48.9521289 114.81435,49.646253 C114.192937,50.3403771 113.409227,50.8776021 112.463196,51.2579441 C111.517165,51.6382861 110.39493,51.8284542 109.096456,51.8284542 C108.558517,51.8284542 107.988124,51.7809122 107.385261,51.6858267 C106.782399,51.5907412 106.188819,51.4481151 105.604506,51.2579441 C105.020193,51.0677731 104.459075,50.8300629 103.921136,50.5448064 C103.383197,50.2595499 102.900914,49.9362641 102.474272,49.5749392 L104.394149,46.9220672 C105.043386,47.5496314 105.776085,48.029806 106.592269,48.3626052 C107.408452,48.6954044 108.233898,48.8618016 109.068632,48.8618016 C109.866266,48.8618016 110.538679,48.7429465 111.085893,48.5052327 C111.633107,48.267519 112.069017,47.939479 112.393636,47.5211028 C112.718254,47.1027266 112.950121,46.6082894 113.089243,46.0377765 C113.228365,45.4672635 113.297925,44.8397086 113.297925,44.1550931 L113.297925,43.1567003 L113.242277,43.1567003 C112.759986,43.8222988 112.143221,44.3309986 111.391961,44.6828149 C110.640701,45.0346313 109.801343,45.2105368 108.873862,45.2105368 C107.872182,45.2105368 106.963264,45.0203686 106.14708,44.6400267 C105.330897,44.2596847 104.639933,43.7462307 104.07417,43.0996493 C103.508406,42.453068 103.067859,41.6971496 102.752515,40.8318716 C102.437172,39.9665936 102.279502,39.0490323 102.279502,38.0791603 C102.279502,37.0902711 102.432534,36.1584472 102.738603,35.2836607 C103.044672,34.4088741 103.480582,33.6482015 104.046345,33.0016202 C104.612109,32.3550388 105.298435,31.8415848 106.105344,31.4612428 C106.912252,31.0809009 107.816533,30.8907327 108.818213,30.8907327 C109.764244,30.8907327 110.645338,31.0904093 111.461522,31.4897684 C112.277705,31.8891274 112.926932,32.5071739 113.409223,33.3439262 L113.464871,33.3439262 L113.464871,31.2900898 L116.636841,31.2900898 Z M109.51382,33.6862323 C108.901683,33.6862323 108.359114,33.8003332 107.886099,34.0285384 C107.413083,34.2567436 107.014272,34.5657668 106.689654,34.9556173 C106.365036,35.3454679 106.114619,35.8066256 105.938398,36.3391044 C105.762176,36.8715832 105.674067,37.4420876 105.674067,38.0506348 C105.674067,38.6021306 105.762176,39.1346014 105.938398,39.6480631 C106.114619,40.1615248 106.365036,40.6226825 106.689654,41.0315501 C107.014272,41.4404178 107.413083,41.7684578 107.886099,42.0156801 C108.359114,42.2629024 108.892408,42.3865117 109.485996,42.3865117 C110.098134,42.3865117 110.649977,42.2676566 111.141542,42.0299429 C111.633107,41.7922291 112.050467,41.4736975 112.393636,41.0743384 C112.736804,40.6749793 113.001132,40.2138216 113.186628,39.6908514 C113.372124,39.1678811 113.464871,38.6211477 113.464871,38.0506348 C113.464871,37.4611047 113.372124,36.9001087 113.186628,36.3676299 C113.001132,35.8351511 112.736804,35.3692392 112.393636,34.9698801 C112.050467,34.570521 111.637744,34.2567436 111.155454,34.0285384 C110.673164,33.8003332 110.125958,33.6862323 109.51382,33.6862323 Z M136.540491,31.2900898 L136.540491,43.755736 C136.540491,44.9918474 136.392096,46.1090852 136.095302,47.1074829 C135.798508,48.1058806 135.339412,48.9521289 134.717999,49.646253 C134.096587,50.3403771 133.312877,50.8776021 132.366846,51.2579441 C131.420815,51.6382861 130.298579,51.8284542 129.000105,51.8284542 C128.462166,51.8284542 127.891774,51.7809122 127.288911,51.6858267 C126.686048,51.5907412 126.092469,51.4481151 125.508156,51.2579441 C124.923842,51.0677731 124.362725,50.8300629 123.824785,50.5448064 C123.286846,50.2595499 122.804563,49.9362641 122.377922,49.5749392 L124.297799,46.9220672 C124.947036,47.5496314 125.679735,48.029806 126.495918,48.3626052 C127.312102,48.6954044 128.137548,48.8618016 128.972281,48.8618016 C129.769915,48.8618016 130.442329,48.7429465 130.989543,48.5052327 C131.536757,48.267519 131.972667,47.939479 132.297285,47.5211028 C132.621903,47.1027266 132.85377,46.6082894 132.992892,46.0377765 C133.132015,45.4672635 133.201575,44.8397086 133.201575,44.1550931 L133.201575,43.1567003 L133.145926,43.1567003 C132.663636,43.8222988 132.04687,44.3309986 131.29561,44.6828149 C130.54435,45.0346313 129.704992,45.2105368 128.777511,45.2105368 C127.775831,45.2105368 126.866913,45.0203686 126.05073,44.6400267 C125.234546,44.2596847 124.543583,43.7462307 123.977819,43.0996493 C123.412056,42.453068 122.971509,41.6971496 122.656165,40.8318716 C122.340821,39.9665936 122.183152,39.0490323 122.183152,38.0791603 C122.183152,37.0902711 122.336184,36.1584472 122.642253,35.2836607 C122.948322,34.4088741 123.384231,33.6482015 123.949995,33.0016202 C124.515758,32.3550388 125.202084,31.8415848 126.008993,31.4612428 C126.815902,31.0809009 127.720183,30.8907327 128.721862,30.8907327 C129.667893,30.8907327 130.548987,31.0904093 131.365171,31.4897684 C132.181354,31.8891274 132.830582,32.5071739 133.312872,33.3439262 L133.368521,33.3439262 L133.368521,31.2900898 L136.540491,31.2900898 Z M129.41747,33.6862323 C128.805332,33.6862323 128.262764,33.8003332 127.789748,34.0285384 C127.316733,34.2567436 126.917922,34.5657668 126.593303,34.9556173 C126.268685,35.3454679 126.018269,35.8066256 125.842047,36.3391044 C125.665826,36.8715832 125.577716,37.4420876 125.577716,38.0506348 C125.577716,38.6021306 125.665826,39.1346014 125.842047,39.6480631 C126.018269,40.1615248 126.268685,40.6226825 126.593303,41.0315501 C126.917922,41.4404178 127.316733,41.7684578 127.789748,42.0156801 C128.262764,42.2629024 128.796058,42.3865117 129.389646,42.3865117 C130.001783,42.3865117 130.553626,42.2676566 131.045191,42.0299429 C131.536757,41.7922291 131.954117,41.4736975 132.297285,41.0743384 C132.640453,40.6749793 132.904781,40.2138216 133.090278,39.6908514 C133.275774,39.1678811 133.368521,38.6211477 133.368521,38.0506348 C133.368521,37.4611047 133.275774,36.9001087 133.090278,36.3676299 C132.904781,35.8351511 132.640453,35.3692392 132.297285,34.9698801 C131.954117,34.570521 131.541394,34.2567436 131.059104,34.0285384 C130.576813,33.8003332 130.029608,33.6862323 129.41747,33.6862323 Z M152.270495,36.766987 C152.270495,36.3295937 152.21021,35.9112238 152.089637,35.5118647 C151.969065,35.1125056 151.778934,34.7606946 151.519239,34.456421 C151.259544,34.1521474 150.930293,33.909683 150.531476,33.7290206 C150.132659,33.5483581 149.664288,33.4580283 149.126349,33.4580283 C148.124669,33.4580283 147.276037,33.7670515 146.580426,34.3851072 C145.884815,35.0031629 145.499916,35.7971149 145.425717,36.766987 L152.270495,36.766987 Z M155.609411,38.3073643 L155.609411,38.7637724 C155.609411,38.9159092 155.600137,39.0680437 155.581587,39.2201805 L145.425717,39.2201805 C145.462816,39.7146251 145.588025,40.1662744 145.801345,40.575142 C146.014666,40.9840097 146.297544,41.3358207 146.649986,41.6305858 C147.002429,41.9253508 147.40124,42.1583068 147.846431,42.3294607 C148.291622,42.5006146 148.755356,42.5861902 149.237646,42.5861902 C150.07238,42.5861902 150.777255,42.4293015 151.352293,42.1155194 C151.927332,41.8017372 152.40034,41.3691047 152.771333,40.8176088 L154.997277,42.6432412 C153.680253,44.4688828 151.76967,45.3816898 149.265471,45.3816898 C148.226692,45.3816898 147.2714,45.2152927 146.399568,44.8824935 C145.527735,44.5496942 144.771849,44.0790281 144.131887,43.4704809 C143.491925,42.8619337 142.991093,42.1155238 142.629375,41.2312287 C142.267657,40.3469336 142.086801,39.3437966 142.086801,38.2217878 C142.086801,37.118796 142.267657,36.1156591 142.629375,35.2123469 C142.991093,34.3090347 143.487288,33.5388537 144.117975,32.9017809 C144.748662,32.2647081 145.495274,31.7702709 146.357831,31.4184546 C147.220389,31.0666383 148.152494,30.8907327 149.154173,30.8907327 C150.081655,30.8907327 150.939562,31.0476214 151.727921,31.3614036 C152.51628,31.6751857 153.197969,32.1410977 153.773007,32.7591534 C154.348046,33.3772091 154.797867,34.1473901 155.122486,35.0697194 C155.447104,35.9920487 155.609411,37.0712529 155.609411,38.3073643 Z M159.235845,34.0285384 L159.235845,31.2900898 L161.573086,31.2900898 L161.573086,27.3250445 L164.856354,27.3250445 L164.856354,31.2900898 L168.19527,31.2900898 L168.19527,34.0285384 L164.856354,34.0285384 L164.856354,40.3897263 C164.856354,40.9982734 164.963012,41.502219 165.176333,41.9015781 C165.389654,42.3009372 165.867299,42.5006137 166.609284,42.5006137 C166.83188,42.5006137 167.073021,42.4768427 167.332716,42.4292999 C167.592411,42.3817572 167.824278,42.3104441 168.028324,42.2153586 L168.139621,44.8967562 C167.842827,45.0108588 167.490389,45.1011887 167.082298,45.1677485 C166.674206,45.2343084 166.284669,45.2675878 165.913677,45.2675878 C165.023295,45.2675878 164.29987,45.1392243 163.743382,44.8824935 C163.186893,44.6257626 162.746346,44.2739516 162.421727,43.8270497 C162.097109,43.3801479 161.874517,42.8666939 161.753944,42.2866724 C161.633371,41.7066509 161.573086,41.0838502 161.573086,40.4182518 L161.573086,34.0285384 L159.235845,34.0285384 Z M172.322541,42.9855473 C172.322541,42.3770001 172.540495,41.8540378 172.976412,41.4166445 C173.412328,40.9792512 173.936347,40.7605578 174.548485,40.7605578 C175.142073,40.7605578 175.661454,40.9697428 176.106645,41.388119 C176.551837,41.8064951 176.774429,42.3199491 176.774429,42.9284963 C176.774429,43.5370435 176.556474,44.0600059 176.120558,44.4973991 C175.684641,44.9347924 175.160622,45.1534858 174.548485,45.1534858 C174.251691,45.1534858 173.968813,45.0964353 173.699843,44.9823327 C173.430874,44.8682301 173.19437,44.7160956 172.990324,44.5259246 C172.786278,44.3357536 172.623971,44.1075519 172.503399,43.8413125 C172.382826,43.5750731 172.322541,43.2898209 172.322541,42.9855473 Z M190.779326,43.2422769 L190.695853,43.2422769 C190.36196,43.850824 189.824029,44.3500154 189.082044,44.7398659 C188.340059,45.1297165 187.496064,45.3246388 186.550033,45.3246388 C186.012094,45.3246388 185.450976,45.2533258 184.866663,45.1106975 C184.282349,44.9680693 183.744418,44.7303591 183.252853,44.3975599 C182.761288,44.0647606 182.353202,43.6273739 182.028584,43.0853866 C181.703965,42.5433993 181.541659,41.8730566 181.541659,41.0743384 C181.541659,40.047415 181.824536,39.229692 182.3903,38.6211449 C182.956063,38.0125977 183.684125,37.5466858 184.574507,37.2233951 C185.464889,36.9001044 186.452642,36.6861652 187.537795,36.5815712 C188.622949,36.4769771 189.684899,36.4246809 190.723678,36.4246809 L190.723678,36.0823748 C190.723678,35.2266054 190.422251,34.5942963 189.819388,34.1854287 C189.216525,33.776561 188.497738,33.5721303 187.663005,33.5721303 C186.958119,33.5721303 186.281068,33.7242648 185.631831,34.0285384 C184.982594,34.332812 184.444663,34.7036399 184.018021,35.1410331 L182.292915,33.0586712 C183.053449,32.3360214 183.929906,31.7940422 184.922311,31.4327173 C185.914716,31.0713925 186.921018,30.8907327 187.941248,30.8907327 C189.128424,30.8907327 190.106902,31.061884 190.876711,31.4041918 C191.646521,31.7464996 192.254012,32.1933947 192.699203,32.7448906 C193.144394,33.2963865 193.455096,33.9144329 193.631317,34.5990485 C193.807539,35.2836641 193.895648,35.9682694 193.895648,36.652885 L193.895648,44.9823327 L190.779326,44.9823327 L190.779326,43.2422769 Z M190.723678,38.7352469 L189.972422,38.7352469 C189.434483,38.7352469 188.868727,38.7590179 188.275139,38.8065607 C187.681551,38.8541034 187.134346,38.9586959 186.633506,39.1203412 C186.132666,39.2819866 185.715305,39.5101883 185.381412,39.8049534 C185.047519,40.0997184 184.880575,40.5038257 184.880575,41.0172874 C184.880575,41.3405781 184.950135,41.6115677 185.089257,41.8302643 C185.228379,42.048961 185.409235,42.2248665 185.631831,42.3579862 C185.854426,42.4911059 186.104843,42.5861899 186.383087,42.6432412 C186.661331,42.7002925 186.939572,42.7288178 187.217816,42.7288178 C188.367893,42.7288178 189.239712,42.4150403 189.8333,41.7874761 C190.426888,41.1599118 190.723678,40.3041552 190.723678,39.2201805 L190.723678,38.7352469 Z M200.16539,31.2900898 L203.504306,31.2900898 L203.504306,44.9823327 L200.16539,44.9823327 L200.16539,31.2900898 Z M199.692377,26.6404323 C199.692377,26.0889364 199.891783,25.6087619 200.2906,25.1998943 C200.689417,24.7910266 201.194886,24.5865959 201.807024,24.5865959 C202.419162,24.5865959 202.933906,24.7815182 203.351273,25.1713688 C203.768639,25.5612193 203.977319,26.0509022 203.977319,26.6404323 C203.977319,27.2299624 203.768639,27.7196453 203.351273,28.1094959 C202.933906,28.4993464 202.419162,28.6942688 201.807024,28.6942688 C201.194886,28.6942688 200.689417,28.489838 200.2906,28.0809704 C199.891783,27.6721027 199.692377,27.1919282 199.692377,26.6404323 Z" id="nugget.ai" fill="#F5F5F5"></path>
                    <path d="M38.633533,10.7414555 L57.1039767,28.8966585 C57.4360245,29.2230392 57.6210034,29.6704614 57.6163752,30.1360349 L57.5282759,38.998323 C57.5254628,39.2813015 57.4526255,39.5591805 57.3162661,39.807154 L49.3425784,54.3075327 C49.1076933,54.7346781 48.7020387,55.0416004 48.2271214,55.1514987 L33.0798294,58.6566618 C32.5429632,58.7808955 31.9791071,58.6394234 31.5644793,58.2764589 L13.4758207,42.4416748 C13.2347942,42.2306806 13.0577201,41.9563638 12.964684,41.6498404 L9.73114315,30.996388 C9.52797958,30.3270309 9.75196725,29.6013788 10.2970606,29.1629868 L31.2897296,12.2796107 C31.451484,12.1495195 31.6355246,12.0498933 31.8328886,11.9855839 L36.9010544,10.3341637 C37.5093031,10.1359708 38.1773032,10.2930123 38.633533,10.7414555 Z" id="Path-10" stroke="#F5F5F5" stroke-width="1.9044" transform="translate(33.636819, 34.475300) rotate(-40.000000) translate(-33.636819, -34.475300) "></path>
                    <polyline id="Path-13" stroke="#F5F5F5" stroke-width="1.52352" stroke-linecap="round" stroke-linejoin="round" transform="translate(41.664827, 25.440297) rotate(-40.000000) translate(-41.664827, -25.440297) " points="33.7940549 3.29987055 49.5355991 27.0003806 44.7532467 47.580723"></polyline>
                    <polyline id="Path-14" stroke="#F5F5F5" stroke-width="1.52352" stroke-linecap="round" transform="translate(28.283166, 40.157729) rotate(-40.000000) translate(-28.283166, -40.157729) " points="33.6950654 17.0362563 21.856454 41.8656561 34.7098786 63.2792013"></polyline>
                    <path d="M13.7076732,42.6002083 L23.377826,49.4381408" id="Path-17" stroke="#F5F5F5" stroke-width="1.52352" stroke-linecap="round" transform="translate(18.542750, 46.019175) rotate(-40.000000) translate(-18.542750, -46.019175) "></path>
                    <path d="M46.6471032,20.6681947 L50.7184298,15.9000894" id="Path-18" stroke="#F5F5F5" stroke-width="1.52352" transform="translate(48.682766, 18.284142) rotate(-40.000000) translate(-48.682766, -18.284142) "></path>
                </g>
            </g>
        </g>
    </g>
</svg>