<?xml version="1.0" encoding="UTF-8"?>
<svg width="801px" height="934px" viewBox="0 0 801 934" version="1.1" xmlns="http://www.w3.org/2000/svg" xmlns:xlink="http://www.w3.org/1999/xlink">
    <!-- Generator: Sketch 49 (51002) - http://www.bohemiancoding.com/sketch -->
    <title>shapes</title>
    <desc>Created with Sketch.</desc>
    <defs></defs>
    <g id="shapes" stroke="none" stroke-width="1" fill="none" fill-rule="evenodd" opacity="0.799999952">
        <g id="Group" transform="translate(7.000000, 22.500000)" fill="#928EF3">
            <circle id="Oval" cx="610" cy="857.718532" r="20.078125"></circle>
            <circle id="Oval" cx="65.0988041" cy="592.08" r="10.0799999"></circle>
            <path d="M206.828427,820.462682 L221.171573,834.805828 C222.73367,836.367925 222.73367,838.900585 221.171573,840.462682 L206.828427,854.805828 C205.26633,856.367925 202.73367,856.367925 201.171573,854.805828 L186.828427,840.462682 C185.26633,838.900585 185.26633,836.367925 186.828427,834.805828 L201.171573,820.462682 C202.73367,818.900585 205.26633,818.900585 206.828427,820.462682 Z" id="Polygon" transform="translate(204.000000, 837.634255) rotate(-20.000000) translate(-204.000000, -837.634255) "></path>
            <path d="M482.554119,7.05411859 L491.897264,16.3972643 C493.459362,17.9593615 493.459362,20.4920214 491.897264,22.0541186 L482.554119,31.3972643 C480.992021,32.9593615 478.459362,32.9593615 476.897264,31.3972643 L467.554119,22.0541186 C465.992021,20.4920214 465.992021,17.9593615 467.554119,16.3972643 L476.897264,7.05411859 C478.459362,5.49202142 480.992021,5.49202142 482.554119,7.05411859 Z" id="Polygon" transform="translate(479.725691, 19.225691) rotate(20.000000) translate(-479.725691, -19.225691) "></path>
            <path d="M-3.76018817,358.564541 C-3.76018817,370.714805 6.08954733,380.564541 18.2398118,380.564541 C30.3900763,380.564541 40.2398118,370.714805 40.2398118,358.564541" id="Oval-4" transform="translate(18.239812, 369.564541) rotate(-70.000000) translate(-18.239812, -369.564541) "></path>
            <path d="M399.972432,879.976781 C399.972432,889.365621 407.583591,896.976781 416.972432,896.976781 C426.361273,896.976781 433.972432,889.365621 433.972432,879.976781" id="Oval-4" transform="translate(416.972432, 888.476781) rotate(150.000000) translate(-416.972432, -888.476781) "></path>
            <!-- <path d="M124.823684,109.375561 L140.226862,140.181917 C141.214819,142.157831 140.413921,144.560523 138.438008,145.54848 C137.882586,145.826191 137.270134,145.970772 136.649153,145.970772 L105.842797,145.970772 C103.633658,145.970772 101.842797,144.179911 101.842797,141.970772 C101.842797,141.349791 101.987377,140.737339 102.265088,140.181917 L117.668266,109.375561 C118.656223,107.399647 121.058915,106.59875 123.034829,107.586706 C123.808939,107.973761 124.436629,108.601451 124.823684,109.375561 Z" id="Triangle-2" transform="translate(121.246851, 129.038853) rotate(-50.000000) translate(-121.246851, -129.038853) "></path> -->
            <circle id="Oval" transform="translate(673.689375, 599.884956) rotate(-10.000000) translate(-673.689375, -599.884956) " cx="673.689375" cy="599.884956" r="5.07999992"></circle>
            <!-- <path d="M682.402758,210.011299 L686.745904,214.354445 C688.308001,215.916542 688.308001,218.449202 686.745904,220.011299 L682.402758,224.354445 C680.840661,225.916542 678.308001,225.916542 676.745904,224.354445 L672.402758,220.011299 C670.840661,218.449202 670.840661,215.916542 672.402758,214.354445 L676.745904,210.011299 C678.308001,208.449202 680.840661,208.449202 682.402758,210.011299 Z" id="Polygon" transform="translate(679.574331, 217.182872) rotate(-20.000000) translate(-679.574331, -217.182872) "></path> -->
            <path d="M777.054119,371.545224 L786.397264,380.88837 C787.959362,382.450467 787.959362,384.983127 786.397264,386.545224 L777.054119,395.88837 C775.492021,397.450467 772.959362,397.450467 771.397264,395.88837 L762.054119,386.545224 C760.492021,384.983127 760.492021,382.450467 762.054119,380.88837 L771.397264,371.545224 C772.959362,369.983127 775.492021,369.983127 777.054119,371.545224 Z" id="Polygon" transform="translate(774.225691, 383.716797) rotate(20.000000) translate(-774.225691, -383.716797) "></path>
        </g>
    </g>
</svg>