<?xml version="1.0" encoding="UTF-8"?>
<svg width="20px" height="18px" viewBox="0 0 20 18" version="1.1" xmlns="http://www.w3.org/2000/svg" xmlns:xlink="http://www.w3.org/1999/xlink">
    <!-- Generator: Sketch 52.6 (67491) - http://www.bohemiancoding.com/sketch -->
    <title>bullhorn-solid</title>
    <desc>Created with Sketch.</desc>
    <g id="---ui-design" stroke="none" stroke-width="1" fill="none" fill-rule="evenodd">
        <g id="insights-nav-expanded" transform="translate(-1004.000000, -33.000000)" fill="#8C92F7" fill-rule="nonzero">
            <g id="bullhorn-solid" transform="translate(1004.000000, 33.000000)">
                <path d="M20,8.40517241 C20,7.57761315 19.5503472,6.86282328 18.8888889,6.47478448 L18.8888889,1.12103987 C18.8888889,0.814601293 18.6465278,0 17.7777778,0 C17.5305556,0 17.2850694,0.0833512931 17.0840278,0.245851293 L14.1315972,2.62836746 C12.6486111,3.82400323 10.7868056,4.48275862 8.88888889,4.48275862 L2.22222222,4.48275862 C0.994791667,4.48275862 0,5.48612608 0,6.72413793 L0,10.0862069 C0,11.3242188 0.994791667,12.3275862 2.22222222,12.3275862 L3.39236111,12.3275862 C3.34409722,12.6946121 3.31666667,13.0679418 3.31666667,13.4482759 C3.31666667,14.841083 3.63819444,16.1571929 4.20416667,17.3335668 C4.384375,17.7079472 4.77777778,17.9310345 5.19027778,17.9310345 L7.76944444,17.9310345 C8.67395833,17.9310345 9.21701389,16.8859914 8.66875,16.1603448 C8.09930556,15.406681 7.76076389,14.4667026 7.76076389,13.4482759 C7.76076389,13.0591864 7.81701389,12.6851562 7.91388889,12.3275862 L8.88888889,12.3275862 C10.7868056,12.3275862 12.6486111,12.9863416 14.13125,14.1819774 L17.0836806,16.5644935 C17.280595,16.7234283 17.5252291,16.8101218 17.7774306,16.8103448 C18.6427083,16.8103448 18.8885417,16.0125539 18.8885417,15.6896552 L18.8885417,10.3359106 C19.5503472,9.94752155 20,9.23273168 20,8.40517241 Z M16.6666667,13.3579203 L15.5190972,12.4319504 C13.6440972,10.9190194 11.2888889,10.0862069 8.88888889,10.0862069 L8.88888889,6.72413793 C11.2888889,6.72413793 13.6440972,5.89132543 15.5190972,4.3783944 L16.6666667,3.45242457 L16.6666667,13.3579203 Z" id="Shape"></path>
            </g>
        </g>
    </g>
</svg>