<?xml version="1.0" encoding="UTF-8"?>
<svg width="16px" height="19px" viewBox="0 0 16 19" version="1.1" xmlns="http://www.w3.org/2000/svg" xmlns:xlink="http://www.w3.org/1999/xlink">
    <!-- Generator: Sketch 52.6 (67491) - http://www.bohemiancoding.com/sketch -->
    <title>book-solid</title>
    <desc>Created with Sketch.</desc>
    <g id="---ui-design" stroke="none" stroke-width="1" fill="none" fill-rule="evenodd">
        <g id="insights-nav-expanded" transform="translate(-1061.000000, -33.000000)" fill="#A1A6F7" fill-rule="nonzero">
            <g id="book-solid" transform="translate(1061.000000, 33.000000)">
                <path d="M16,13.2954545 L16,0.886363636 C16,0.395170455 15.6178571,0 15.1428571,0 L3.42857143,0 C1.53571429,0 0,1.58806818 0,3.54545455 L0,15.3636364 C0,17.3210227 1.53571429,18.9090909 3.42857143,18.9090909 L15.1428571,18.9090909 C15.6178571,18.9090909 16,18.5139205 16,18.0227273 L16,17.4318182 C16,17.1548295 15.875,16.9036932 15.6821429,16.7411932 C15.5321429,16.1724432 15.5321429,14.5511364 15.6821429,13.9823864 C15.875,13.8235795 16,13.5724432 16,13.2954545 Z M4.57142857,4.94886364 C4.57142857,4.82698864 4.66785714,4.72727273 4.78571429,4.72727273 L12.3571429,4.72727273 C12.475,4.72727273 12.5714286,4.82698864 12.5714286,4.94886364 L12.5714286,5.6875 C12.5714286,5.809375 12.475,5.90909091 12.3571429,5.90909091 L4.78571429,5.90909091 C4.66785714,5.90909091 4.57142857,5.809375 4.57142857,5.6875 L4.57142857,4.94886364 Z M4.57142857,7.3125 C4.57142857,7.190625 4.66785714,7.09090909 4.78571429,7.09090909 L12.3571429,7.09090909 C12.475,7.09090909 12.5714286,7.190625 12.5714286,7.3125 L12.5714286,8.05113636 C12.5714286,8.17301136 12.475,8.27272727 12.3571429,8.27272727 L4.78571429,8.27272727 C4.66785714,8.27272727 4.57142857,8.17301136 4.57142857,8.05113636 L4.57142857,7.3125 Z M13.6214286,16.5454545 L3.42857143,16.5454545 C2.79642857,16.5454545 2.28571429,16.0173295 2.28571429,15.3636364 C2.28571429,14.7136364 2.8,14.1818182 3.42857143,14.1818182 L13.6214286,14.1818182 C13.5535714,14.8133523 13.5535714,15.9139205 13.6214286,16.5454545 Z" id="Shape"></path>
            </g>
        </g>
    </g>
</svg>