<svg width="93" height="93" viewBox="0 0 93 93" fill="none" xmlns="http://www.w3.org/2000/svg">
<g clip-path="url(#clip0)" filter="url(#filter0_d)">
<g opacity="0.5">
<path opacity="0.5" d="M46.5 69.3956C61.6878 69.3956 74 57.2187 74 42.1978C74 27.1769 61.6878 15 46.5 15C31.3122 15 19 27.1769 19 42.1978C19 57.2187 31.3122 69.3956 46.5 69.3956Z" fill="url(#paint0_linear)"/>
</g>
<path d="M46.5548 68.6479C61.4224 68.6479 73.4749 56.7278 73.4749 42.0236C73.4749 27.3195 61.4224 15.3994 46.5548 15.3994C31.6873 15.3994 19.6348 27.3195 19.6348 42.0236C19.6348 56.7278 31.6873 68.6479 46.5548 68.6479Z" fill="#F5F5F5"/>
<path d="M46.5783 68.7529C51.8385 68.7613 56.9848 67.2381 61.3755 64.3732C60.3834 59.0115 56.6083 58.7061 56.6083 58.7061H35.7902C35.7902 58.7061 32.2278 58.9952 31.1152 63.9274C35.642 67.0766 41.0437 68.7623 46.5783 68.7529V68.7529Z" fill="#FFC107"/>
<path d="M46.2924 54.3138C53.4685 54.3138 59.2859 48.5604 59.2859 41.4631C59.2859 34.3658 53.4685 28.6123 46.2924 28.6123C39.1162 28.6123 33.2988 34.3658 33.2988 41.4631C33.2988 48.5604 39.1162 54.3138 46.2924 54.3138Z" fill="#333333"/>
<path opacity="0.1" d="M42.0977 52.167H50.4233V58.7545C50.4233 59.8461 49.9849 60.8931 49.2046 61.6651C48.4243 62.4372 47.3658 62.8711 46.2621 62.8715V62.8715C45.158 62.8715 44.0992 62.4378 43.3185 61.6657C42.5378 60.8936 42.0992 59.8464 42.0992 58.7545V52.167H42.0977Z" fill="black"/>
<path d="M42.364 51.8613H50.1648C50.2348 51.8613 50.302 51.8888 50.3515 51.9378C50.401 51.9868 50.4288 52.0532 50.4288 52.1224V58.4488C50.4289 58.9897 50.3212 59.5252 50.112 60.0249C49.9027 60.5246 49.596 60.9787 49.2092 61.3611C48.8225 61.7435 48.3634 62.0468 47.8581 62.2536C47.3528 62.4605 46.8112 62.5669 46.2644 62.5667V62.5667C45.1603 62.5667 44.1015 62.1329 43.3208 61.3608C42.5401 60.5887 42.1016 59.5415 42.1016 58.4496V52.1224C42.1016 52.0534 42.1292 51.9873 42.1783 51.9383C42.2275 51.8894 42.2942 51.8617 42.364 51.8613V51.8613Z" fill="#FDB797"/>
<path opacity="0.1" d="M42.1133 55.2757C44.7966 56.2671 47.7502 56.2751 50.4389 55.2983V54.2852H42.1133V55.2757Z" fill="black"/>
<path d="M46.2931 55.8279C52.8839 55.8279 58.2269 50.5437 58.2269 44.0253C58.2269 37.5069 52.8839 32.2227 46.2931 32.2227C39.7023 32.2227 34.3594 37.5069 34.3594 44.0253C34.3594 50.5437 39.7023 55.8279 46.2931 55.8279Z" fill="#FDB797"/>
<path opacity="0.1" d="M37.793 33.2889C37.793 33.2889 42.8226 43.3856 57.0099 37.5221L53.7067 32.3997L47.8514 30.3213L37.793 33.2889Z" fill="black"/>
<path d="M37.793 33.141C37.793 33.141 42.8226 43.2377 57.0099 37.3727L53.7067 32.2503L47.8514 30.1719L37.793 33.141Z" fill="#333333"/>
<path d="M37.7491 32.4561C38.0883 31.4178 38.6744 30.4752 39.4582 29.7074C41.8056 27.4124 45.654 26.9284 47.6279 24.3115C48.1006 25.0378 47.735 26.1546 46.9187 26.4663C48.8098 26.4538 51.0011 26.2902 52.0704 24.7518C52.3347 25.3603 52.4189 26.0304 52.3133 26.6843C52.2077 27.3382 51.9166 27.949 51.4739 28.4457C53.1499 28.5237 54.941 29.6459 55.0466 31.3019C55.119 32.4054 54.4162 33.4497 53.5029 34.0825C52.5897 34.7153 51.4771 35.0059 50.3857 35.2436C47.1992 35.9396 35.6697 38.8518 37.7491 32.4561Z" fill="#333333"/>
<path d="M34.3544 46.0729C34.9675 46.0729 35.4646 45.1511 35.4646 44.014C35.4646 42.8769 34.9675 41.9551 34.3544 41.9551C33.7412 41.9551 33.2441 42.8769 33.2441 44.014C33.2441 45.1511 33.7412 46.0729 34.3544 46.0729Z" fill="#FDB797"/>
<path d="M58.2235 46.0729C58.8367 46.0729 59.3338 45.1511 59.3338 44.014C59.3338 42.8769 58.8367 41.9551 58.2235 41.9551C57.6104 41.9551 57.1133 42.8769 57.1133 44.014C57.1133 45.1511 57.6104 46.0729 58.2235 46.0729Z" fill="#FDB797"/>
</g>
<defs>
<filter id="filter0_d" x="0" y="0" width="93" height="92.3956" filterUnits="userSpaceOnUse" color-interpolation-filters="sRGB">
<feFlood flood-opacity="0" result="BackgroundImageFix"/>
<feColorMatrix in="SourceAlpha" type="matrix" values="0 0 0 0 0 0 0 0 0 0 0 0 0 0 0 0 0 0 127 0"/>
<feOffset dy="4"/>
<feGaussianBlur stdDeviation="9.5"/>
<feColorMatrix type="matrix" values="0 0 0 0 0 0 0 0 0 0 0 0 0 0 0 0 0 0 0.25 0"/>
<feBlend mode="normal" in2="BackgroundImageFix" result="effect1_dropShadow"/>
<feBlend mode="normal" in="SourceGraphic" in2="effect1_dropShadow" result="shape"/>
</filter>
<linearGradient id="paint0_linear" x1="46.5" y1="69.3956" x2="46.5" y2="15" gradientUnits="userSpaceOnUse">
<stop stop-color="#808080" stop-opacity="0.25"/>
<stop offset="0.54" stop-color="#808080" stop-opacity="0.12"/>
<stop offset="1" stop-color="#808080" stop-opacity="0.1"/>
</linearGradient>
<clipPath id="clip0">
<rect width="55" height="54.3956" fill="white" transform="translate(19 15)"/>
</clipPath>
</defs>
</svg>
