<?xml version="1.0" encoding="UTF-8"?>
<svg width="11px" height="11px" viewBox="0 0 11 11" version="1.1" xmlns="http://www.w3.org/2000/svg" xmlns:xlink="http://www.w3.org/1999/xlink">
    <!-- Generator: Sketch 52.6 (67491) - http://www.bohemiancoding.com/sketch -->
    <title>Shape</title>
    <desc>Created with Sketch.</desc>
    <g id="---ui-design" stroke="none" stroke-width="1" fill="none" fill-rule="evenodd">
        <g id="talent-delete-field" transform="translate(-1064.000000, -712.000000)" fill="#A1A6F7" fill-rule="nonzero">
            <g id="edit-solid" transform="translate(1064.000000, 712.500000)">
                <path d="M7.68854167,1.58697917 L9.41111111,3.30954861 C9.48368056,3.38211806 9.48368056,3.50052083 9.41111111,3.57309028 L5.24027778,7.74392361 L3.46805556,7.940625 C3.23125,7.96736111 3.03072917,7.76684028 3.05746528,7.53003472 L3.25416667,5.7578125 L7.425,1.58697917 C7.49756944,1.51440972 7.61597222,1.51440972 7.68854167,1.58697917 Z M10.7822917,1.14965278 L9.85034722,0.217708333 C9.56006944,-0.0725694444 9.08836806,-0.0725694444 8.79618056,0.217708333 L8.12013889,0.89375 C8.04756944,0.966319444 8.04756944,1.08472222 8.12013889,1.15729167 L9.84270833,2.87986111 C9.91527778,2.95243056 10.0336806,2.95243056 10.10625,2.87986111 L10.7822917,2.20381944 C11.0725694,1.91163194 11.0725694,1.43993056 10.7822917,1.14965278 Z M7.33333333,6.60954861 L7.33333333,8.55364583 L1.22222222,8.55364583 L1.22222222,2.44253472 L5.61076389,2.44253472 C5.671875,2.44253472 5.72916667,2.41770833 5.77309028,2.37569444 L6.53697917,1.61180556 C6.68211806,1.46666667 6.57899306,1.2203125 6.37465278,1.2203125 L0.916666667,1.2203125 C0.410590278,1.2203125 0,1.63090278 0,2.13697917 L0,8.85920139 C0,9.36527778 0.410590278,9.77586806 0.916666667,9.77586806 L7.63888889,9.77586806 C8.14496528,9.77586806 8.55555556,9.36527778 8.55555556,8.85920139 L8.55555556,5.84565972 C8.55555556,5.64131944 8.30920139,5.54010417 8.1640625,5.68333333 L7.40017361,6.44722222 C7.35815972,6.49114583 7.33333333,6.5484375 7.33333333,6.60954861 Z" id="Shape"></path>
            </g>
        </g>
    </g>
</svg>